<svg id="Layer_1" data-name="Layer 1" xmlns="http://www.w3.org/2000/svg" xmlns:xlink="http://www.w3.org/1999/xlink" viewBox="0 0 500 500"><defs><style>.cls-1,.cls-5,.cls-6{fill:none;}.cls-2{clip-path:url(#clip-path);}.cls-3{fill:url(#linear-gradient);}.cls-4{fill:#fff;}.cls-5,.cls-6{stroke:#c6c6c6;stroke-linecap:round;stroke-miterlimit:10;stroke-width:4px;}.cls-6{stroke-dasharray:11.24 11.24;}.cls-7{clip-path:url(#clip-path-2);}.cls-8{fill:url(#linear-gradient-2);}.cls-9{clip-path:url(#clip-path-3);}.cls-10{fill:url(#linear-gradient-3);}.cls-11{clip-path:url(#clip-path-4);}.cls-12{fill:url(#linear-gradient-4);}.cls-13{clip-path:url(#clip-path-5);}.cls-14{fill:url(#linear-gradient-5);}.cls-15{clip-path:url(#clip-path-6);}.cls-16{fill:url(#linear-gradient-6);}.cls-17{clip-path:url(#clip-path-7);}.cls-18{fill:url(#linear-gradient-7);}</style><clipPath id="clip-path"><path class="cls-1" d="M242.35,6.12,204.82,27.79a10,10,0,0,0-5,8.65V79.77a10,10,0,0,0,5,8.66l37.53,21.66a10,10,0,0,0,10,0l37.53-21.66a10,10,0,0,0,5-8.66V36.44a10,10,0,0,0-5-8.65L252.34,6.12A10,10,0,0,0,242.35,6.12Z"/></clipPath><linearGradient id="linear-gradient" x1="192.82" y1="3.02" x2="302.17" y2="112.36" gradientUnits="userSpaceOnUse"><stop offset="0" stop-color="#161412" stop-opacity="0"/><stop offset="0" stop-color="#ff0bac"/><stop offset="0.65" stop-color="#7410cc"/><stop offset="1" stop-color="#2f12dc"/></linearGradient><clipPath id="clip-path-2"><path class="cls-1" d="M93.19,96.92,55.66,118.59a10,10,0,0,0-5,8.65v43.33a10,10,0,0,0,5,8.66l37.53,21.66a10,10,0,0,0,10,0l37.53-21.66a10,10,0,0,0,5-8.66V127.24a10,10,0,0,0-5-8.65L103.18,96.92A10,10,0,0,0,93.19,96.92Z"/></clipPath><linearGradient id="linear-gradient-2" x1="43.66" y1="93.82" x2="153.01" y2="203.16" xlink:href="#linear-gradient"/><clipPath id="clip-path-3"><path class="cls-1" d="M94.06,288.33,56.54,310a10,10,0,0,0-5,8.66V362a10,10,0,0,0,5,8.65L94.06,392.3a10,10,0,0,0,10,0l37.52-21.67a10,10,0,0,0,5-8.65V318.65a10,10,0,0,0-5-8.66l-37.52-21.66A10,10,0,0,0,94.06,288.33Z"/></clipPath><linearGradient id="linear-gradient-3" x1="44.54" y1="285.22" x2="153.89" y2="394.57" xlink:href="#linear-gradient"/><clipPath id="clip-path-4"><path class="cls-1" d="M394.39,96.88l-37.53,21.67a10,10,0,0,0-5,8.65v43.33a10,10,0,0,0,5,8.66l37.53,21.66a10,10,0,0,0,10,0l37.53-21.66a10,10,0,0,0,5-8.66V127.2a10,10,0,0,0-5-8.65L404.38,96.88A10,10,0,0,0,394.39,96.88Z"/></clipPath><linearGradient id="linear-gradient-4" x1="344.86" y1="93.78" x2="454.21" y2="203.13" xlink:href="#linear-gradient"/><clipPath id="clip-path-5"><path class="cls-1" d="M197.38,247.27l21.67,37.53a10,10,0,0,0,8.65,5H271a10,10,0,0,0,8.65-5l21.67-37.53a10,10,0,0,0,0-10l-21.67-37.53a10,10,0,0,0-8.65-5H227.7a10,10,0,0,0-8.65,5l-21.67,37.53A10,10,0,0,0,197.38,247.27Z"/></clipPath><linearGradient id="linear-gradient-5" x1="185.37" y1="176.2" x2="294.72" y2="285.54" gradientTransform="translate(8.91 11.25)" xlink:href="#linear-gradient"/><clipPath id="clip-path-6"><path class="cls-1" d="M395.26,288.29,357.73,310a10,10,0,0,0-5,8.66v43.33a10,10,0,0,0,5,8.66l37.53,21.66a10,10,0,0,0,10,0l37.53-21.66a10,10,0,0,0,5-8.66V318.61a10,10,0,0,0-5-8.66l-37.53-21.66A10,10,0,0,0,395.26,288.29Z"/></clipPath><linearGradient id="linear-gradient-6" x1="345.73" y1="285.18" x2="455.08" y2="394.53" xlink:href="#linear-gradient"/><clipPath id="clip-path-7"><path class="cls-1" d="M243.81,389.91l-37.52,21.66a10,10,0,0,0-5,8.66v43.33a10,10,0,0,0,5,8.65l37.52,21.67a10,10,0,0,0,10,0l37.52-21.67a10,10,0,0,0,5-8.65V420.23a10,10,0,0,0-5-8.66l-37.52-21.66A10,10,0,0,0,243.81,389.91Z"/></clipPath><linearGradient id="linear-gradient-7" x1="194.29" y1="386.8" x2="303.64" y2="496.15" xlink:href="#linear-gradient"/></defs><g class="cls-2"><rect class="cls-3" x="196.51" y="-0.67" width="101.97" height="116.73"/></g><rect class="cls-4" x="243.71" y="44.22" width="53.32" height="1.19" transform="translate(13.82 141.19) rotate(-30)"/><rect class="cls-4" x="197.57" y="43.99" width="54.07" height="1.23" transform="translate(396.81 195.54) rotate(-150)"/><rect class="cls-4" x="246.75" y="58.11" width="1.47" height="53.14"/><line class="cls-5" x1="220.21" y1="71.36" x2="215.01" y2="74.35"/><line class="cls-6" x1="205.26" y1="79.94" x2="132.16" y2="121.88"/><line class="cls-5" x1="127.29" y1="124.68" x2="122.09" y2="127.66"/><g class="cls-7"><rect class="cls-8" x="47.35" y="90.13" width="101.97" height="116.73"/></g><rect class="cls-4" x="94.55" y="135.02" width="53.32" height="1.19" transform="translate(-51.57 78.78) rotate(-30)"/><rect class="cls-4" x="48.41" y="134.79" width="54.07" height="1.23" transform="translate(73.08 290.4) rotate(-150)"/><line class="cls-5" x1="98.46" y1="301.45" x2="98.46" y2="295.45"/><line class="cls-6" x1="98.46" y1="284.21" x2="98.46" y2="199.94"/><line class="cls-5" x1="98.46" y1="194.32" x2="98.46" y2="188.32"/><line class="cls-5" x1="223.96" y1="253.62" x2="218.76" y2="256.62"/><line class="cls-6" x1="209.03" y1="262.24" x2="136.05" y2="304.37"/><line class="cls-5" x1="131.18" y1="307.18" x2="125.99" y2="310.18"/><rect class="cls-4" x="97.59" y="148.91" width="1.47" height="53.14"/><line class="cls-5" x1="212.51" y1="231.73" x2="207.63" y2="228.24"/><line class="cls-6" x1="198.5" y1="221.69" x2="129.98" y2="172.62"/><line class="cls-5" x1="125.41" y1="169.35" x2="120.54" y2="165.86"/><g class="cls-9"><rect class="cls-10" x="48.23" y="281.53" width="101.97" height="116.73"/></g><rect class="cls-4" x="95.43" y="326.42" width="53.32" height="1.19" transform="translate(-147.15 104.86) rotate(-30)"/><rect class="cls-4" x="49.28" y="326.2" width="54.07" height="1.23" transform="translate(-21 648) rotate(-150)"/><rect class="cls-4" x="98.46" y="340.31" width="1.47" height="53.14"/><line class="cls-5" x1="215.87" y1="426.23" x2="211.12" y2="422.56"/><line class="cls-6" x1="202.24" y1="415.68" x2="135.62" y2="364.06"/><line class="cls-5" x1="131.18" y1="360.62" x2="126.43" y2="356.95"/><line class="cls-5" x1="247.49" y1="197.81" x2="247.49" y2="191.81"/><line class="cls-6" x1="247.49" y1="180.57" x2="247.49" y2="96.29"/><line class="cls-5" x1="247.49" y1="90.68" x2="247.49" y2="84.68"/><line class="cls-5" x1="248.95" y1="391.59" x2="248.95" y2="385.59"/><line class="cls-6" x1="248.95" y1="374.35" x2="248.95" y2="290.08"/><line class="cls-5" x1="248.95" y1="284.46" x2="248.95" y2="278.46"/><line class="cls-5" x1="271.51" y1="67.36" x2="276.25" y2="71.03"/><line class="cls-6" x1="285.13" y1="77.91" x2="351.75" y2="129.53"/><line class="cls-5" x1="356.2" y1="132.97" x2="360.94" y2="136.64"/><g class="cls-11"><rect class="cls-12" x="348.55" y="90.09" width="101.97" height="116.73"/></g><rect class="cls-4" x="395.75" y="134.98" width="53.32" height="1.19" transform="translate(-11.19 229.37) rotate(-30)"/><rect class="cls-4" x="349.6" y="134.75" width="54.07" height="1.23" transform="translate(635.13 440.92) rotate(-150)"/><rect class="cls-4" x="398.79" y="148.87" width="1.47" height="53.14"/><line class="cls-5" x1="282.01" y1="230.74" x2="286.89" y2="227.25"/><line class="cls-6" x1="296.03" y1="220.7" x2="364.54" y2="171.63"/><line class="cls-5" x1="369.11" y1="168.36" x2="373.99" y2="164.87"/><line class="cls-5" x1="399.38" y1="301.45" x2="399.38" y2="295.45"/><line class="cls-6" x1="399.38" y1="284.21" x2="399.38" y2="199.94"/><line class="cls-5" x1="399.38" y1="194.32" x2="399.38" y2="188.32"/><line class="cls-5" x1="367.73" y1="324.84" x2="362.85" y2="321.35"/><line class="cls-6" x1="353.71" y1="314.8" x2="285.2" y2="265.73"/><line class="cls-5" x1="280.63" y1="262.46" x2="275.75" y2="258.97"/><g class="cls-13"><rect class="cls-14" x="197.97" y="183.76" width="101.97" height="116.73" transform="translate(6.83 491.08) rotate(-90)"/></g><g class="cls-15"><rect class="cls-16" x="349.42" y="281.5" width="101.97" height="116.73"/></g><rect class="cls-4" x="396.62" y="326.38" width="53.32" height="1.19" transform="translate(-106.78 255.45) rotate(-30)"/><rect class="cls-4" x="350.47" y="326.16" width="54.07" height="1.23" transform="translate(541.06 798.53) rotate(-150)"/><line class="cls-5" x1="377.06" y1="360.15" x2="371.86" y2="363.14"/><line class="cls-6" x1="362.11" y1="368.73" x2="289.02" y2="410.67"/><line class="cls-5" x1="284.14" y1="413.46" x2="278.94" y2="416.45"/><rect class="cls-4" x="399.66" y="340.28" width="1.47" height="53.14"/><g class="cls-17"><rect class="cls-18" x="197.98" y="383.11" width="101.97" height="116.73"/></g><rect class="cls-4" x="245.18" y="428" width="53.32" height="1.19" transform="translate(-177.88 193.34) rotate(-30)"/><rect class="cls-4" x="199.03" y="427.78" width="54.07" height="1.23" transform="translate(207.65 912.43) rotate(-150)"/><rect class="cls-4" x="248.21" y="441.89" width="1.47" height="53.14"/><path class="cls-4" d="M296.93,237.35,277.51,203.7a10,10,0,0,0-8.66-5H230a10,10,0,0,0-8.65,5l-19.43,33.65a10,10,0,0,0,0,10L221.34,281a10,10,0,0,0,8.65,5h38.86a10,10,0,0,0,8.66-5l19.42-33.66A10,10,0,0,0,296.93,237.35Z"/></svg>