<svg id="Layer_1" data-name="Layer 1" xmlns="http://www.w3.org/2000/svg" xmlns:xlink="http://www.w3.org/1999/xlink" viewBox="0 0 500 500"><defs><style>.cls-1,.cls-2{fill:none;}.cls-2{stroke:#ededed;stroke-linecap:round;stroke-miterlimit:10;stroke-width:20px;}.cls-3{clip-path:url(#clip-path);}.cls-4{clip-path:url(#clip-path-2);}.cls-5{fill:url(#linear-gradient);}</style><clipPath id="clip-path"><path class="cls-1" d="M409.72,299.63h0v0h0v.06a4.35,4.35,0,0,1-.1.52h-.06v0h0a3,3,0,0,1-.57.95h0a3.18,3.18,0,0,1-.73.57l-87.82,49.41a3,3,0,0,1-2,.33h0a3,3,0,0,1-.89-.33h0l-87.79-49.41a3,3,0,0,1-1.51-2.59,3,3,0,0,1,1.52-2.58L316,248.51v-97a3,3,0,0,1,4.42-2.59l87.82,49.37.05,0,0,0h0a2.92,2.92,0,0,1,.64.52H409a3,3,0,0,1,.42.65h.08a3.47,3.47,0,0,1,.21.9h0v0h0v98.79ZM325,250.25l78.8,44.3V205.91Zm-3.09-5.08,78.81-44.34-78.81-44.3Zm0,98.79,78.81-44.34-78.81-44.3Zm-84.7-44.34L316,344V255.32Zm39.26-96.69-86.28,48.52V348.5a3,3,0,0,1-4.41,2.59L97.94,301.72l0,0a2.7,2.7,0,0,1-.33-.22h0a3,3,0,0,1-1.1-2.12h0v0h0V200.34h0a3,3,0,0,1,.65-1.68h0a3.27,3.27,0,0,1,.82-.7h0l87.83-49.38h0a2.89,2.89,0,0,1,1.27-.36h.22a3.18,3.18,0,0,1,.91.17h.43l0,0,87.79,49.38a3,3,0,0,1,0,5.17Zm-86.28,41.72,78.77-44.31L190.17,156Zm-84.73,54.48,78.8,44.3V254.79Zm0-98.79,78.8,44.31V156Zm-3.09,93.72,78.81-44.34-78.81-44.31Z"/></clipPath><clipPath id="clip-path-2"><path class="cls-1" d="M48.36,245.25,147.05,74.3a10,10,0,0,1,8.66-5H353.1a10,10,0,0,1,8.66,5l98.69,171a10,10,0,0,1,0,10l-98.69,171a10,10,0,0,1-8.66,5H155.71a10,10,0,0,1-8.66-5L48.36,255.24A10,10,0,0,1,48.36,245.25Z"/></clipPath><linearGradient id="linear-gradient" x1="37.37" y1="49.9" x2="453.73" y2="466.27" gradientTransform="matrix(1, 0, 0, -1, 7.27, 508.91)" gradientUnits="userSpaceOnUse"><stop offset="0" stop-color="#161412" stop-opacity="0"/><stop offset="0" stop-color="#ff0bac"/><stop offset="0.65" stop-color="#7410cc"/><stop offset="1" stop-color="#2f12dc"/></linearGradient></defs><line class="cls-2" x1="90.86" y1="126.51" x2="14.86" y2="242.51"/><line class="cls-2" x1="92.2" y1="360.16" x2="16.2" y2="244.16"/><g class="cls-3"><g class="cls-4"><rect class="cls-5" x="58.68" y="28.59" width="388.27" height="444.46" transform="translate(503.64 -2) rotate(90)"/></g></g><line class="cls-2" x1="409.93" y1="361.7" x2="485.93" y2="245.7"/><line class="cls-2" x1="408.59" y1="128.05" x2="484.59" y2="244.05"/></svg>