<svg id="Layer_1" data-name="Layer 1" xmlns="http://www.w3.org/2000/svg" xmlns:xlink="http://www.w3.org/1999/xlink" viewBox="0 0 500 500"><defs><style>.cls-1,.cls-5{fill:none;}.cls-2{clip-path:url(#clip-path);}.cls-3{clip-path:url(#clip-path-2);}.cls-4{fill:url(#linear-gradient);}.cls-5{stroke:#dadada;stroke-miterlimit:10;stroke-width:9px;}</style><clipPath id="clip-path"><path class="cls-1" d="M297,217.76H277.53V198.25a20.62,20.62,0,0,0-20.6-20.6H237.7a20.62,20.62,0,0,0-20.61,20.6v19.51h-19.5A20.62,20.62,0,0,0,177,238.36v19.23a20.62,20.62,0,0,0,20.61,20.6h19.5V297.7a20.62,20.62,0,0,0,20.61,20.6h19.23a20.62,20.62,0,0,0,20.6-20.6V278.19H297a20.62,20.62,0,0,0,20.6-20.6V238.36A20.62,20.62,0,0,0,297,217.76ZM197.59,270a12.38,12.38,0,0,1-12.37-12.36V238.36A12.38,12.38,0,0,1,197.59,226h49.72a4.12,4.12,0,0,0,0-8.24h-22V198.25a12.38,12.38,0,0,1,12.37-12.36h19.23a12.37,12.37,0,0,1,12.36,12.36v45.6H221.21a4.13,4.13,0,0,0-4.12,4.13v22ZM309.4,257.59A12.37,12.37,0,0,1,297,270H247.31a4.12,4.12,0,0,0,0,8.24h22V297.7a12.37,12.37,0,0,1-12.36,12.36H237.7a12.38,12.38,0,0,1-12.37-12.36V252.1h48.08a4.12,4.12,0,0,0,4.12-4.12V226H297a12.37,12.37,0,0,1,12.36,12.36Zm-67.58-55.22a4.13,4.13,0,1,1-4.12-4.12A4.12,4.12,0,0,1,241.82,202.37Zm19.23,91.21a4.12,4.12,0,1,1-4.12-4.12A4.12,4.12,0,0,1,261.05,293.58Z"/></clipPath><clipPath id="clip-path-2"><rect class="cls-1" x="169.95" y="171" width="155.26" height="152.46" rx="8.32"/></clipPath><linearGradient id="linear-gradient" x1="266.97" y1="561.8" x2="769.28" y2="1064.1" gradientTransform="translate(-262.08 -171.93) scale(1 0.5)" gradientUnits="userSpaceOnUse"><stop offset="0" stop-color="#161412" stop-opacity="0"/><stop offset="0" stop-color="#ff0bac"/><stop offset="0.65" stop-color="#7410cc"/><stop offset="1" stop-color="#2f12dc"/></linearGradient></defs><g class="cls-2"><g class="cls-3"><rect class="cls-4" x="-32.32" y="127.58" width="576.74" height="213.94"/></g></g><ellipse class="cls-5" cx="245.9" cy="251.36" rx="96.06" ry="241.53"/><ellipse class="cls-5" cx="241.82" cy="251.36" rx="96.06" ry="241.53" transform="translate(-103.22 302.41) rotate(-54.52)"/><ellipse class="cls-5" cx="244.82" cy="252.03" rx="241.53" ry="96.06" transform="matrix(0.82, -0.57, 0.57, 0.82, -100.13, 185.22)"/></svg>