<svg width="131" height="161" viewBox="0 0 131 161" fill="none" xmlns="http://www.w3.org/2000/svg">
<g filter="url(#filter0_d)">
<path d="M68.5469 1.18982C66.9592 0.387855 64.9704 0.37976 63.3762 1.16877C55.6 6.10901 50.6079 11.0606 45.6159 16.0121C25.0487 36.4126 23.7599 59.8747 28.8351 83.3626L7.86854 104.159C4.8717 107.528 3.25644 113.488 4.62993 118.067L14.4537 147.541C14.8482 148.338 15.4408 149.335 16.035 149.934C18.8079 152.729 22.7853 152.746 25.5809 149.973L46.1481 129.572L46.3105 138.522C46.093 143.095 50.0527 147.487 55.2233 147.508L75.5083 147.59C79.8835 147.608 84.4729 143.848 84.494 138.678L84.5296 129.927L104.93 150.494C107.903 153.092 111.88 153.108 114.676 150.335C115.275 149.741 115.875 148.749 116.276 147.955L126.34 118.563C127.75 113.994 126.184 108.022 123.015 104.827L102.218 83.8602C107.684 60.2162 106.387 36.9425 85.9861 16.3753C81.2342 11.1852 76.2827 6.19319 68.5469 1.18982ZM73.6987 54.7083C69.106 59.2637 62.3444 59.2362 57.7889 54.6435C53.4316 50.2505 53.261 43.2892 57.8537 38.7338C62.2467 34.3764 69.4061 34.4055 73.7635 38.7985C78.3189 43.3912 78.0917 50.3509 73.6987 54.7083Z" fill="#242424"/>
<path d="M68.5469 1.18982C66.9592 0.387855 64.9704 0.37976 63.3762 1.16877C55.6 6.10901 50.6079 11.0606 45.6159 16.0121C25.0487 36.4126 23.7599 59.8747 28.8351 83.3626L7.86854 104.159C4.8717 107.528 3.25644 113.488 4.62993 118.067L14.4537 147.541C14.8482 148.338 15.4408 149.335 16.035 149.934C18.8079 152.729 22.7853 152.746 25.5809 149.973L46.1481 129.572L46.3105 138.522C46.093 143.095 50.0527 147.487 55.2233 147.508L75.5083 147.59C79.8835 147.608 84.4729 143.848 84.494 138.678L84.5296 129.927L104.93 150.494C107.903 153.092 111.88 153.108 114.676 150.335C115.275 149.741 115.875 148.749 116.276 147.955L126.34 118.563C127.75 113.994 126.184 108.022 123.015 104.827L102.218 83.8602C107.684 60.2162 106.387 36.9425 85.9861 16.3753C81.2342 11.1852 76.2827 6.19319 68.5469 1.18982ZM73.6987 54.7083C69.106 59.2637 62.3444 59.2362 57.7889 54.6435C53.4316 50.2505 53.261 43.2892 57.8537 38.7338C62.2467 34.3764 69.4061 34.4055 73.7635 38.7985C78.3189 43.3912 78.0917 50.3509 73.6987 54.7083Z" fill="url(#paint0_linear)"/>
</g>
<defs>
<filter id="filter0_d" x="0.134766" y="0.582642" width="130.726" height="159.846" filterUnits="userSpaceOnUse" color-interpolation-filters="sRGB">
<feFlood flood-opacity="0" result="BackgroundImageFix"/>
<feColorMatrix in="SourceAlpha" type="matrix" values="0 0 0 0 0 0 0 0 0 0 0 0 0 0 0 0 0 0 127 0"/>
<feOffset dy="4"/>
<feGaussianBlur stdDeviation="2"/>
<feColorMatrix type="matrix" values="0 0 0 0 0 0 0 0 0 0 0 0 0 0 0 0 0 0 0.25 0"/>
<feBlend mode="normal" in2="BackgroundImageFix" result="effect1_dropShadow"/>
<feBlend mode="normal" in="SourceGraphic" in2="effect1_dropShadow" result="shape"/>
</filter>
<linearGradient id="paint0_linear" x1="7.11848" y1="38.704" x2="124.019" y2="156.561" gradientUnits="userSpaceOnUse">
<stop stop-color="#FF0BAC"/>
<stop offset="1" stop-color="#4612DC"/>
</linearGradient>
</defs>
</svg>
