<svg width="257" height="308" viewBox="0 0 257 308" fill="none" xmlns="http://www.w3.org/2000/svg">
<path d="M166 85C166 83.3431 164.657 82 163 82H144C142.343 82 141 80.6569 141 79V35C141 33.3431 139.657 32 138 32H119C117.343 32 116 33.3431 116 35V79C116 80.6569 114.657 82 113 82H94C92.3431 82 91 83.3431 91 85V229C91 230.657 92.3431 232 94 232H113C114.657 232 116 233.343 116 235V279C116 280.657 117.343 282 119 282H138C139.657 282 141 280.657 141 279V235C141 233.343 142.343 232 144 232H163C164.657 232 166 230.657 166 229V85ZM141 204C141 205.657 139.657 207 138 207H119C117.343 207 116 205.657 116 204V110C116 108.343 117.343 107 119 107H138C139.657 107 141 108.343 141 110V204Z" fill="url(#paint0_linear)"/>
<path d="M257 53C257 51.3431 255.657 50 254 50H235C233.343 50 232 48.6569 232 47V3C232 1.34315 230.657 0 229 0H210C208.343 0 207 1.34315 207 3V47C207 48.6569 205.657 50 204 50H185C183.343 50 182 51.3431 182 53V197C182 198.657 183.343 200 185 200H204C205.657 200 207 201.343 207 203V247C207 248.657 208.343 250 210 250H229C230.657 250 232 248.657 232 247V203C232 201.343 233.343 200 235 200H254C255.657 200 257 198.657 257 197V53ZM232 172C232 173.657 230.657 175 229 175H210C208.343 175 207 173.657 207 172V78C207 76.3431 208.343 75 210 75H229C230.657 75 232 76.3431 232 78V172Z" fill="url(#paint1_linear)"/>
<path d="M75 136C75 134.343 73.6569 133 72 133H53C51.3431 133 50 131.657 50 130V86C50 84.3431 48.6569 83 47 83H28C26.3431 83 25 84.3431 25 86V130C25 131.657 23.6569 133 22 133H3C1.34315 133 0 134.343 0 136V255C0 256.657 1.34315 258 3 258H22C23.6569 258 25 259.343 25 261V305C25 306.657 26.3431 308 28 308H47C48.6569 308 50 306.657 50 305V261C50 259.343 51.3431 258 53 258H72C73.6569 258 75 256.657 75 255V136ZM50 230C50 231.657 48.6569 233 47 233H28C26.3431 233 25 231.657 25 230V161C25 159.343 26.3431 158 28 158H47C48.6569 158 50 159.343 50 161V230Z" fill="#FF0BAC"/>
<path d="M75 136C75 134.343 73.6569 133 72 133H53C51.3431 133 50 131.657 50 130V86C50 84.3431 48.6569 83 47 83H28C26.3431 83 25 84.3431 25 86V130C25 131.657 23.6569 133 22 133H3C1.34315 133 0 134.343 0 136V255C0 256.657 1.34315 258 3 258H22C23.6569 258 25 259.343 25 261V305C25 306.657 26.3431 308 28 308H47C48.6569 308 50 306.657 50 305V261C50 259.343 51.3431 258 53 258H72C73.6569 258 75 256.657 75 255V136ZM50 230C50 231.657 48.6569 233 47 233H28C26.3431 233 25 231.657 25 230V161C25 159.343 26.3431 158 28 158H47C48.6569 158 50 159.343 50 161V230Z" fill="url(#paint2_linear)"/>
<defs>
<linearGradient id="paint0_linear" x1="128.5" y1="32" x2="128.5" y2="282" gradientUnits="userSpaceOnUse">
<stop stop-color="#DBDBDB"/>
<stop offset="0.651042"/>
</linearGradient>
<linearGradient id="paint1_linear" x1="219.5" y1="0" x2="219.5" y2="250" gradientUnits="userSpaceOnUse">
<stop stop-color="#DBDBDB"/>
<stop offset="0.651042"/>
</linearGradient>
<linearGradient id="paint2_linear" x1="6.34191" y1="98.7169" x2="128.398" y2="141.29" gradientUnits="userSpaceOnUse">
<stop stop-color="#FF0BAC"/>
<stop offset="1" stop-color="#2F12DC"/>
</linearGradient>
</defs>
</svg>