<svg id="Layer_1" data-name="Layer 1" xmlns="http://www.w3.org/2000/svg" xmlns:xlink="http://www.w3.org/1999/xlink" viewBox="0 0 500 500"><defs><style>.cls-1,.cls-2,.cls-4{fill:none;}.cls-2{stroke:#dadada;stroke-width:20px;}.cls-2,.cls-4{stroke-linecap:round;stroke-miterlimit:10;}.cls-3{fill:#fff;}.cls-4{stroke:#b2b2b2;stroke-width:11px;}.cls-5{clip-path:url(#clip-path);}.cls-6{fill:url(#linear-gradient);}.cls-7{clip-path:url(#clip-path-2);}.cls-8{fill:url(#linear-gradient-2);}.cls-9{clip-path:url(#clip-path-3);}.cls-10{fill:url(#linear-gradient-3);}.cls-11{clip-path:url(#clip-path-4);}.cls-12{fill:url(#linear-gradient-4);}.cls-13{clip-path:url(#clip-path-5);}.cls-14{fill:url(#linear-gradient-5);}</style><clipPath id="clip-path"><rect class="cls-1" x="213.05" y="140.57" width="29.49" height="257.84" rx="8.32"/></clipPath><linearGradient id="linear-gradient" x1="283.19" y1="610.32" x2="699.78" y2="1026.91" gradientTransform="translate(-262.08 -161.26) scale(1 0.5)" gradientUnits="userSpaceOnUse"><stop offset="0" stop-color="#161412" stop-opacity="0"/><stop offset="0" stop-color="#ff0bac"/><stop offset="0.65" stop-color="#7410cc"/><stop offset="1" stop-color="#2f12dc"/></linearGradient><clipPath id="clip-path-2"><rect class="cls-1" x="397.72" y="98.95" width="16.63" height="56.74" rx="8.32" transform="translate(-17.9 164.18) rotate(-22.38)"/></clipPath><linearGradient id="linear-gradient-2" x1="437.68" y1="280.26" x2="548.2" y2="390.77" gradientTransform="translate(-87.87 -45.14) scale(1 0.5)" xlink:href="#linear-gradient"/><clipPath id="clip-path-3"><rect class="cls-1" x="370.27" y="88.14" width="16.63" height="56.74" rx="8.32" transform="translate(342.19 -277.92) rotate(67.62)"/></clipPath><linearGradient id="linear-gradient-3" x1="266.68" y1="198.15" x2="377.19" y2="308.67" gradientTransform="translate(61.36 -11.15) scale(1 0.5)" xlink:href="#linear-gradient"/><clipPath id="clip-path-4"><rect class="cls-1" x="130.11" y="243" width="29.49" height="174.11" rx="8.32"/></clipPath><linearGradient id="linear-gradient-4" x1="259" y1="804.12" x2="558.09" y2="1103.21" xlink:href="#linear-gradient"/><clipPath id="clip-path-5"><rect class="cls-1" x="300.42" y="57.51" width="29.49" height="276.85" rx="8.32"/></clipPath><linearGradient id="linear-gradient-5" x1="357.23" y1="446.71" x2="800.48" y2="889.96" xlink:href="#linear-gradient"/></defs><line class="cls-2" x1="128.12" y1="304.99" x2="56.85" y2="413.43"/><line class="cls-2" x1="204.26" y1="362.98" x2="128.32" y2="304.15"/><rect class="cls-3" x="101.29" y="145.59" width="54.07" height="1.23" transform="translate(166.36 336.98) rotate(-150)"/><rect class="cls-3" x="151.34" y="351.11" width="1.47" height="53.14"/><line class="cls-4" x1="144.86" y1="208.07" x2="144.86" y2="452.04"/><line class="cls-4" x1="227.8" y1="101.33" x2="227.8" y2="423.51"/><line class="cls-2" x1="344.36" y1="262.42" x2="279.52" y2="212.19"/><line class="cls-4" x1="314.35" y1="37.03" x2="314.35" y2="359.21"/><g class="cls-5"><rect class="cls-6" x="174.63" y="67.14" width="109.55" height="361.81"/></g><line class="cls-2" x1="279.52" y1="212.19" x2="208.31" y2="359.21"/><line class="cls-2" x1="396.53" y1="110.57" x2="346.15" y2="262.29"/><g class="cls-7"><rect class="cls-8" x="374.18" y="82.8" width="61.78" height="79.63" transform="translate(-16.18 163.46) rotate(-22.38)"/></g><g class="cls-9"><rect class="cls-10" x="352.41" y="75.74" width="61.78" height="79.63" transform="translate(344.22 -282.87) rotate(67.62)"/></g><g class="cls-11"><rect class="cls-12" x="91.69" y="193.42" width="109.55" height="244.31"/></g><g class="cls-13"><rect class="cls-14" x="262" y="-21.33" width="109.55" height="388.48"/></g></svg>
