<svg version="1.0" xmlns="http://www.w3.org/2000/svg"
 width="2000.000000pt" height="2000.000000pt" viewBox="0 0 2000.000000 2000.000000"
 preserveAspectRatio="xMidYMid meet">
<g transform="translate(0.000000,2000.000000) scale(0.100000,-0.100000)"
fill="#000000" stroke="none">
<path d="M8048 16859 c-2 -6 -59 -14 -133 -19 -129 -9 -260 -26 -275 -35 -5
-3 -60 -12 -122 -20 -112 -15 -183 -34 -308 -82 -133 -51 -166 -67 -228 -109
-36 -24 -68 -44 -74 -44 -5 0 -14 -5 -21 -11 -7 -6 -43 -28 -82 -50 -95 -55
-227 -136 -241 -148 -7 -5 -36 -22 -65 -38 -30 -15 -58 -33 -64 -39 -5 -6 -49
-39 -97 -73 -47 -34 -89 -69 -92 -77 -3 -7 -14 -14 -25 -14 -10 0 -21 -7 -24
-15 -4 -8 -24 -26 -46 -39 -29 -19 -43 -36 -51 -63 -11 -39 -60 -108 -60 -85
0 6 -4 12 -10 12 -5 0 -10 -7 -10 -15 0 -8 -13 -41 -29 -72 -51 -100 -122
-252 -119 -255 1 -2 -7 -19 -20 -39 -12 -20 -22 -42 -22 -49 0 -8 -6 -21 -14
-29 -7 -9 -23 -41 -34 -71 -11 -30 -47 -117 -81 -194 -39 -89 -75 -194 -102
-295 -22 -86 -45 -169 -50 -186 -6 -16 -17 -68 -25 -115 -9 -47 -17 -92 -19
-100 -2 -8 -4 -26 -4 -40 -1 -20 -3 -22 -11 -10 -8 12 -10 9 -10 -14 0 -19 -4
-27 -13 -23 -11 4 -13 -19 -10 -112 1 -64 6 -138 9 -166 3 -27 8 -68 9 -90 2
-22 6 -59 8 -82 3 -26 1 -44 -6 -47 -8 -3 -6 -10 6 -19 9 -8 17 -19 17 -26 0
-15 20 -14 20 2 1 6 8 -8 16 -31 9 -24 13 -50 10 -58 -3 -8 -2 -14 2 -14 4 0
13 -23 19 -51 7 -28 29 -85 49 -127 144 -301 181 -373 220 -429 43 -62 52 -79
35 -69 -4 3 -1 -19 8 -49 9 -30 21 -53 26 -51 13 4 7 56 -8 76 -10 12 -8 12
13 -1 39 -25 47 -83 24 -171 -14 -58 -18 -111 -18 -258 1 -259 4 -272 83 -389
23 -33 41 -66 41 -73 0 -16 35 -71 43 -66 3 2 9 -1 14 -6 5 -5 3 -6 -4 -2 -7
4 -13 5 -13 2 0 -8 60 -85 94 -121 16 -16 40 -46 54 -65 48 -64 91 -100 179
-151 78 -45 207 -136 272 -190 14 -12 41 -33 60 -47 20 -15 61 -48 90 -74 30
-27 63 -48 72 -48 10 0 31 -11 48 -25 16 -14 62 -37 100 -52 60 -22 71 -30 71
-49 0 -12 5 -26 10 -29 6 -4 8 -11 4 -16 -3 -5 1 -31 10 -57 16 -50 18 -61 42
-212 19 -121 28 -473 15 -564 -14 -94 -74 -215 -145 -291 -31 -33 -56 -64 -56
-70 0 -12 -49 -63 -104 -107 -21 -18 -64 -64 -94 -103 -72 -91 -145 -170 -154
-167 -12 3 -48 -31 -48 -45 0 -7 -5 -13 -10 -13 -6 0 -9 3 -9 8 1 4 1 18 0 30
-2 42 -25 17 -36 -38 -9 -50 -15 -58 -75 -107 -75 -62 -107 -83 -94 -61 5 8
-1 6 -16 -5 -126 -89 -313 -207 -328 -207 -6 0 -32 -13 -57 -29 -25 -16 -83
-44 -128 -62 -82 -32 -418 -196 -427 -208 -3 -3 -16 -8 -30 -10 -14 -1 -54
-14 -90 -27 -43 -17 -94 -26 -155 -30 -49 -3 -119 -13 -155 -24 -36 -10 -105
-26 -155 -35 -179 -33 -201 -38 -245 -54 -25 -9 -47 -16 -50 -17 -18 -2 -120
-58 -120 -65 0 -5 -3 -8 -7 -7 -27 6 -139 -104 -159 -157 -4 -10 -41 -39 -83
-66 -42 -26 -97 -65 -124 -85 -26 -19 -59 -37 -73 -39 -15 -1 -30 -8 -34 -16
-5 -7 -18 -14 -29 -16 -12 -1 -38 -14 -59 -27 -20 -13 -64 -39 -98 -58 -135
-74 -260 -176 -492 -402 -40 -39 -70 -63 -66 -53 12 32 -17 18 -61 -30 -24
-26 -42 -50 -40 -53 2 -4 -19 -29 -46 -56 -59 -57 -215 -263 -330 -434 -28
-41 -53 -73 -55 -70 -3 3 -18 -17 -35 -43 -16 -26 -36 -50 -44 -53 -8 -4 -26
-28 -40 -56 -13 -27 -20 -46 -14 -42 6 3 4 -7 -4 -22 -8 -16 -22 -65 -31 -109
-10 -44 -26 -106 -37 -137 -14 -43 -16 -63 -9 -80 7 -14 8 -44 3 -78 -8 -51
-10 -55 -33 -52 l-25 4 23 -24 c30 -33 28 -62 -12 -187 -34 -107 -66 -241 -66
-273 0 -29 18 -21 23 9 l4 28 2 -28 c1 -21 -4 -30 -19 -34 -24 -6 -24 -7 -4
-39 15 -22 15 -24 0 -18 -14 5 -16 -2 -16 -50 0 -31 5 -56 10 -56 15 0 12 -37
-5 -54 -16 -15 -21 -41 -7 -32 5 3 7 -68 6 -157 -2 -166 9 -409 21 -446 5 -18
2 -21 -19 -21 -14 0 -26 -4 -26 -10 0 -5 6 -10 13 -10 21 0 47 -60 54 -122 5
-52 4 -58 -11 -52 -14 5 -15 3 -3 -23 8 -20 11 -66 8 -139 -3 -76 -6 -102 -12
-84 -6 18 -8 11 -5 -27 2 -29 0 -50 -4 -48 -4 2 -10 -27 -14 -67 -6 -66 -40
-215 -51 -226 -3 -3 -5 3 -5 14 -1 20 -28 -58 -78 -221 -35 -115 -52 -186 -52
-212 1 -36 23 18 53 132 53 197 67 243 61 200 -3 -22 -16 -78 -29 -125 -14
-47 -36 -132 -49 -190 -23 -99 -35 -139 -56 -185 -5 -11 -16 -56 -26 -100 -12
-58 -19 -75 -24 -60 -8 22 -33 -55 -64 -200 -10 -44 -22 -96 -26 -115 -15 -58
-60 -289 -59 -302 0 -7 7 3 15 22 l14 35 -5 -35 c-13 -100 -24 -423 -19 -554
5 -111 4 -147 -5 -142 -14 9 -15 -62 -1 -84 7 -11 10 -3 11 30 2 103 10 6 24
-305 41 -862 40 -953 -10 -1214 -45 -238 -85 -518 -85 -603 0 -4 -10 -9 -22
-11 -13 -2 619 -5 1405 -6 915 -1 1427 2 1427 9 0 5 6 7 14 4 15 -6 28 19 20
40 -3 8 -13 13 -22 10 -9 -3 -7 1 5 7 13 7 23 21 23 31 0 11 -4 17 -9 13 -14
-8 42 151 74 213 26 48 45 66 45 41 0 -19 18 1 38 44 25 51 72 212 72 245 0
12 7 36 15 52 19 36 47 31 43 -8 -2 -19 4 -29 22 -38 13 -7 27 -20 30 -29 5
-15 7 -16 19 -1 11 13 9 17 -13 26 -27 10 -36 30 -13 30 17 0 32 -12 45 -35
l11 -20 0 20 c0 28 -23 55 -46 55 -15 0 -22 9 -27 30 -3 17 -9 30 -13 29 -24
-4 -33 4 -32 29 1 15 3 20 6 12 6 -22 56 -57 61 -42 7 22 24 12 20 -12 -3 -15
2 -27 14 -35 10 -6 19 -8 19 -4 6 34 5 53 -2 53 -5 0 -9 9 -9 21 0 11 -4 17
-10 14 -5 -3 -10 -1 -10 4 0 6 -7 11 -15 11 -8 0 -15 -5 -15 -12 0 -6 -3 -9
-6 -5 -3 3 -7 32 -8 65 -1 45 2 59 13 58 24 -2 24 24 -1 33 -19 8 -20 10 -4
10 16 1 18 7 13 39 -4 21 -3 31 2 22 5 -8 11 -35 15 -60 8 -53 29 -80 57 -73
24 7 20 24 -7 38 -15 8 -18 16 -13 35 4 14 8 18 8 10 1 -11 4 -12 9 -3 5 8 11
3 20 -15 9 -19 9 -23 0 -14 -28 28 -27 9 1 -25 17 -21 31 -47 31 -59 0 -12 7
-25 15 -28 13 -4 14 -16 9 -54 -4 -32 -2 -57 7 -73 12 -23 11 -23 -6 -9 -17
14 -18 13 -12 -3 4 -11 1 -25 -9 -34 -8 -8 -18 -29 -21 -46 -6 -28 -7 -29 -14
-9 -11 30 -21 28 -42 -8 -15 -25 -16 -36 -7 -70 11 -40 24 -51 33 -27 2 6 -3
22 -11 35 -8 12 -12 25 -9 28 3 3 13 -8 22 -25 21 -41 39 -40 30 1 -7 32 -6
32 9 11 10 -13 23 -19 34 -16 31 8 45 -23 46 -98 1 -38 -2 -69 -6 -69 -5 0 -8
-7 -8 -15 0 -8 3 -15 8 -15 4 0 12 -12 19 -26 9 -20 9 -26 -3 -31 -16 -6 -20
-53 -4 -53 6 0 10 5 10 12 0 6 3 8 6 5 4 -4 2 -12 -3 -19 -7 -9 -7 -43 1 -103
l11 -90 38 0 c32 -1 37 2 34 17 -3 10 -1 16 4 12 5 -3 9 -11 9 -18 0 -9 14
-14 40 -14 24 -1 40 4 40 11 0 7 4 6 10 -3 9 -13 12 -13 21 3 13 23 29 22 29
-2 0 -18 26 -48 35 -39 2 2 0 21 -6 42 -6 21 -8 40 -6 43 3 2 8 -11 12 -29 4
-18 12 -39 17 -45 15 -19 9794 -19 9801 -1 4 10 6 10 6 1 1 -7 10 -13 20 -13
22 0 28 21 29 95 1 48 1 49 -12 22 -11 -25 -12 -18 -12 60 1 48 5 91 10 95 6
4 4 14 -5 24 -11 13 -11 18 -1 21 6 3 12 9 12 14 0 6 -5 7 -10 4 -12 -8 -11
-18 -14 152 -3 115 -1 140 10 136 20 -8 17 24 -3 37 -17 11 -17 11 0 6 14 -4
17 1 16 32 -1 34 -2 35 -10 12 -5 -15 -6 39 -3 134 4 104 3 156 -4 152 -6 -3
-10 30 -11 90 -2 105 -11 167 -36 235 -11 31 -19 108 -25 254 -5 116 -14 233
-20 260 -11 54 -22 404 -24 740 -1 241 5 308 69 701 8 49 21 175 30 280 9 114
26 234 41 302 18 77 24 127 20 155 -28 191 -8 637 29 637 7 0 20 15 29 34 8
18 22 39 31 46 8 7 15 18 15 25 0 6 21 27 48 45 208 149 373 308 474 456 46
69 52 75 42 49 -7 -18 -6 -18 9 -6 19 15 24 46 5 35 -15 -10 -18 -14 173 272
54 80 168 184 293 267 144 96 177 142 267 366 32 79 33 108 7 241 -13 68 -13
69 3 215 25 232 8 492 -46 720 -37 155 -38 153 41 290 94 163 117 211 192 415
49 134 68 169 142 264 66 86 72 126 54 341 -8 94 -16 247 -18 340 -3 99 -9
182 -16 200 -17 42 -39 346 -36 489 2 111 0 123 -23 170 -21 41 -38 58 -94 92
-57 34 -75 40 -114 38 -44 -3 -50 0 -99 46 -62 59 -91 68 -140 45 -19 -9 -42
-14 -50 -11 -23 9 -44 -4 -61 -38 l-15 -31 36 34 c20 19 36 31 36 26 0 -16
-53 -65 -71 -65 -20 0 -42 -24 -31 -35 4 -5 2 -5 -4 -2 -16 9 -49 -17 -73 -59
-20 -33 -20 -36 -4 -30 13 4 12 1 -5 -14 -13 -11 -28 -35 -33 -54 -5 -18 -20
-50 -33 -69 -43 -62 -94 -296 -94 -422 1 -22 -16 -84 -37 -140 -49 -132 -93
-297 -114 -432 -4 -26 -17 -54 -37 -76 -31 -33 -108 -139 -130 -178 -6 -10
-18 -27 -26 -36 -8 -10 -41 -62 -72 -115 -31 -54 -62 -100 -67 -104 -6 -3 -17
-21 -25 -39 -10 -25 -33 -44 -93 -79 -89 -51 -177 -128 -240 -209 -31 -40 -52
-57 -83 -67 -24 -8 -63 -28 -88 -45 -25 -17 -83 -52 -130 -78 -47 -26 -130
-81 -184 -122 -113 -83 -143 -101 -153 -91 -4 4 3 61 15 127 24 128 76 279 97
279 7 0 27 13 45 30 24 22 31 37 29 58 -2 18 15 65 49 135 69 139 83 228 60
387 -8 58 -11 107 -6 108 4 2 8 11 8 20 0 13 -2 14 -9 4 -6 -10 -11 -5 -20 19
-6 17 -11 41 -12 53 -1 27 -59 108 -89 123 -12 6 -26 16 -30 23 -9 14 -128 -8
-176 -33 -29 -15 -123 -109 -125 -124 -9 -122 -53 -225 -175 -416 -53 -84
-103 -159 -110 -168 -8 -8 -29 -62 -48 -120 -52 -162 -81 -232 -129 -322 -24
-45 -63 -125 -87 -177 -26 -57 -75 -138 -122 -200 -67 -90 -82 -118 -108 -200
-37 -119 -66 -243 -80 -340 -17 -115 -67 -308 -125 -485 -29 -88 -61 -200 -70
-250 -9 -49 -21 -112 -27 -139 -12 -53 -4 -201 13 -244 6 -15 12 -34 14 -42 8
-37 49 -148 66 -182 10 -20 19 -44 19 -52 0 -8 6 -21 14 -28 7 -8 19 -32 26
-53 7 -22 19 -56 27 -75 37 -87 55 -287 32 -347 -6 -15 -12 -41 -14 -58 -3
-16 -11 -55 -18 -85 -8 -30 -25 -101 -38 -158 l-23 -103 19 -102 c26 -142 29
-243 11 -382 -9 -66 -23 -174 -32 -240 -9 -66 -20 -140 -25 -165 -6 -25 -12
-58 -14 -73 -3 -16 -7 -33 -10 -38 -12 -19 -63 -246 -63 -279 0 -47 -53 -242
-83 -305 -5 -11 -18 -47 -29 -80 -10 -33 -37 -112 -59 -175 -35 -101 -40 -111
-46 -85 -3 17 -15 64 -25 105 -10 41 -23 98 -29 125 -5 28 -19 89 -30 137 -12
47 -18 93 -15 101 3 8 -4 29 -15 47 l-20 33 -3 -44 c-2 -26 -11 30 -22 135
-16 150 -17 191 -8 248 7 38 13 81 13 96 1 24 2 23 9 -8 l7 -35 3 35 c2 19 4
40 5 45 1 6 5 60 8 120 4 61 10 132 13 159 5 35 3 47 -5 41 -9 -5 -10 10 -5
57 3 35 9 113 13 173 l8 110 2 -92 c0 -55 5 -93 11 -93 6 0 10 51 10 133 0 89
-3 127 -10 117 -12 -19 -3 126 12 190 13 56 20 220 9 220 -5 0 -9 64 -10 143
-1 78 -9 212 -16 297 -8 85 -14 193 -13 240 1 47 3 65 5 40 4 -48 20 -90 36
-90 5 0 6 8 2 18 -3 9 -9 37 -11 62 -7 58 -12 73 -23 66 -9 -6 -21 39 -21 79
0 13 -3 25 -8 27 -9 4 -55 249 -47 256 3 3 5 -3 5 -14 1 -10 7 -32 16 -49 l14
-30 -5 30 c-2 17 -2 24 1 18 3 -7 10 -13 15 -13 14 0 10 54 -6 76 -14 19 -14
19 -16 -1 -1 -17 -2 -16 -8 5 -4 14 -11 38 -15 54 -6 26 -5 28 8 17 13 -11 16
-11 15 0 -2 46 -36 72 -51 39 -5 -12 -7 -12 -7 3 -1 10 6 20 14 23 24 9 18 32
-13 48 -23 12 -32 30 -60 123 -86 286 -163 476 -216 532 -35 37 -235 286 -333
415 -62 81 -181 203 -288 294 -55 46 -120 107 -145 134 -44 48 -158 125 -250
169 -25 12 -67 37 -95 55 -48 31 -153 64 -254 78 -25 4 -59 13 -75 20 -17 7
-69 18 -115 25 -47 6 -88 16 -92 22 -4 7 -14 9 -22 6 -29 -11 -151 59 -249
144 -194 169 -319 259 -458 329 -107 54 -220 142 -325 252 -181 190 -209 234
-273 421 -35 103 -45 149 -48 212 -2 55 0 71 5 50 9 -30 9 -30 11 10 1 22 4
49 5 60 2 11 8 54 14 95 12 89 62 225 121 330 23 41 44 76 45 78 2 2 52 8 112
13 150 13 404 76 450 111 7 5 16 7 22 4 11 -7 81 74 81 93 0 7 7 26 16 43 23
44 3 27 -31 -26 -46 -73 -39 -47 10 40 25 43 69 128 98 189 29 60 79 161 112
225 194 377 293 610 314 745 20 124 59 651 71 945 11 280 4 469 -19 525 -32
75 -54 180 -58 280 -3 79 -1 106 6 95 15 -21 14 54 -1 120 -9 41 -14 48 -20
34 -4 -11 -6 17 -2 61 5 76 48 239 79 295 37 69 26 230 -30 435 -13 50 -33
133 -45 185 -11 52 -25 104 -29 115 -13 29 -62 255 -65 295 -1 19 -8 36 -14
38 -7 2 -12 12 -12 23 0 43 -105 336 -156 436 -60 116 -108 186 -189 273 -28
30 -62 71 -76 90 -13 19 -56 72 -96 118 -40 46 -73 89 -73 95 -1 23 -103 117
-175 162 -16 11 -76 63 -132 117 -71 69 -109 98 -126 98 -13 0 -32 10 -43 22
-33 37 -131 95 -312 183 -97 48 -214 112 -260 142 -46 31 -86 52 -90 48 -4 -4
4 -15 17 -26 13 -10 22 -19 20 -19 -7 0 -131 47 -234 87 -55 22 -140 54 -190
73 -49 18 -102 41 -117 51 -38 27 -56 24 -28 -6 l23 -25 -44 14 c-54 17 -151
39 -294 66 -91 18 -127 21 -217 15 -77 -5 -108 -4 -108 4 0 15 -147 15 -152 0z"/>
</g>
</svg>
