<svg width="400" height="747" id="Layer_1" data-name="Layer 1" xmlns="http://www.w3.org/2000/svg" xmlns:xlink="http://www.w3.org/1999/xlink" viewBox="0 0 835.84 1282.71"><defs><style>.cls-1{fill:none;}.cls-2{clip-path:url(#clip-path);}.cls-3{fill:url(#linear-gradient);}.cls-4{fill:#fff;}.cls-5{clip-path:url(#clip-path-2);}.cls-6{fill:url(#linear-gradient-2);}.cls-7{clip-path:url(#clip-path-3);}.cls-8{fill:url(#linear-gradient-3);}.cls-9{clip-path:url(#clip-path-4);}.cls-10{fill:url(#linear-gradient-4);}.cls-11{clip-path:url(#clip-path-5);}.cls-12{fill:url(#linear-gradient-5);}.cls-13{clip-path:url(#clip-path-6);}.cls-14{fill:url(#linear-gradient-6);}.cls-15{clip-path:url(#clip-path-7);}.cls-16{fill:url(#linear-gradient-7);}.cls-17{clip-path:url(#clip-path-8);}.cls-18{fill:url(#linear-gradient-8);}.cls-19{clip-path:url(#clip-path-9);}.cls-20{fill:url(#linear-gradient-9);}.cls-21{clip-path:url(#clip-path-10);}.cls-22{fill:url(#linear-gradient-10);}.cls-23{clip-path:url(#clip-path-11);}.cls-24{fill:url(#linear-gradient-11);}</style><clipPath id="clip-path"><path class="cls-1" d="M617.68,699,483.33,776.52a10,10,0,0,0-5,8.65V940.31a10,10,0,0,0,5,8.66l134.35,77.57a10,10,0,0,0,10,0L762,949a10,10,0,0,0,5-8.66V785.17a10,10,0,0,0-5-8.65L627.67,699A10,10,0,0,0,617.68,699Z"/></clipPath><linearGradient id="linear-gradient" x1="457.06" y1="695.4" x2="789.21" y2="1027.56" gradientUnits="userSpaceOnUse"><stop offset="0" stop-color="#161412" stop-opacity="0"/><stop offset="0" stop-color="#ff0bac"/><stop offset="0.65" stop-color="#7410cc"/><stop offset="1" stop-color="#2f12dc"/></linearGradient><clipPath id="clip-path-2"><path class="cls-1" d="M469.66,614.61,335.3,692.17a10,10,0,0,0-5,8.66V856a10,10,0,0,0,5,8.65l134.36,77.57a10,10,0,0,0,10,0L614,864.62a10,10,0,0,0,5-8.65V700.83a10,10,0,0,0-5-8.66L479.65,614.61A10,10,0,0,0,469.66,614.61Z"/></clipPath><linearGradient id="linear-gradient-2" x1="309.03" y1="611.05" x2="641.19" y2="943.21" xlink:href="#linear-gradient"/><clipPath id="clip-path-3"><path class="cls-1" d="M179.14,943.28,44.79,1020.85a10,10,0,0,0-5,8.65v155.14a10,10,0,0,0,5,8.66l134.35,77.57a10,10,0,0,0,10,0l134.36-77.57a10,10,0,0,0,5-8.66V1029.5a10,10,0,0,0-5-8.65L189.13,943.28A10,10,0,0,0,179.14,943.28Z"/></clipPath><linearGradient id="linear-gradient-3" x1="18.52" y1="939.73" x2="350.67" y2="1271.89" xlink:href="#linear-gradient"/><clipPath id="clip-path-4"><path class="cls-1" d="M178.07,775,43.71,852.6a10,10,0,0,0-5,8.66V1016.4a10,10,0,0,0,5,8.65l134.36,77.57a10,10,0,0,0,10,0l134.35-77.57a10,10,0,0,0,5-8.65V861.26a10,10,0,0,0-5-8.66L188.06,775A10,10,0,0,0,178.07,775Z"/></clipPath><linearGradient id="linear-gradient-4" x1="17.44" y1="771.48" x2="349.6" y2="1103.64" xlink:href="#linear-gradient"/><clipPath id="clip-path-5"><path class="cls-1" d="M324.55,524.8,190.2,602.37a10,10,0,0,0-5,8.65V766.16a10,10,0,0,0,5,8.66l134.35,77.57a10,10,0,0,0,10,0L468.9,774.82a10,10,0,0,0,5-8.66V611a10,10,0,0,0-5-8.65L334.55,524.8A10,10,0,0,0,324.55,524.8Z"/></clipPath><linearGradient id="linear-gradient-5" x1="163.93" y1="521.25" x2="496.08" y2="853.41" xlink:href="#linear-gradient"/><clipPath id="clip-path-6"><path class="cls-1" d="M177.65,606.69,43.29,684.26a10,10,0,0,0-5,8.65V848.05a10,10,0,0,0,5,8.66l134.36,77.57a10,10,0,0,0,10,0L322,856.71a10,10,0,0,0,5-8.66V692.91a10,10,0,0,0-5-8.65L187.64,606.69A10,10,0,0,0,177.65,606.69Z"/></clipPath><linearGradient id="linear-gradient-6" x1="17.02" y1="603.14" x2="349.18" y2="935.3" xlink:href="#linear-gradient"/><clipPath id="clip-path-7"><path class="cls-1" d="M177.23,440.86,42.87,518.43a10,10,0,0,0-5,8.65V682.22a10,10,0,0,0,5,8.65l134.36,77.57a10,10,0,0,0,10,0l134.36-77.57a10,10,0,0,0,5-8.65V527.08a10,10,0,0,0-5-8.65L187.22,440.86A10,10,0,0,0,177.23,440.86Z"/></clipPath><linearGradient id="linear-gradient-7" x1="16.6" y1="437.31" x2="348.76" y2="769.46" xlink:href="#linear-gradient"/><clipPath id="clip-path-8"><path class="cls-1" d="M177.23,271.81,42.87,349.38a10,10,0,0,0-5,8.66V513.17a10,10,0,0,0,5,8.66L177.23,599.4a10,10,0,0,0,10,0l134.36-77.57a10,10,0,0,0,5-8.66V358a10,10,0,0,0-5-8.66L187.22,271.81A10,10,0,0,0,177.23,271.81Z"/></clipPath><linearGradient id="linear-gradient-8" x1="16.6" y1="268.26" x2="348.76" y2="600.42" xlink:href="#linear-gradient"/><clipPath id="clip-path-9"><path class="cls-1" d="M177.23,106.07,42.87,183.64a10,10,0,0,0-5,8.65V347.43a10,10,0,0,0,5,8.65l134.36,77.57a10,10,0,0,0,10,0l134.36-77.57a10,10,0,0,0,5-8.65V192.29a10,10,0,0,0-5-8.65L187.22,106.07A10,10,0,0,0,177.23,106.07Z"/></clipPath><linearGradient id="linear-gradient-9" x1="16.6" y1="102.52" x2="348.76" y2="434.67" xlink:href="#linear-gradient"/><clipPath id="clip-path-10"><path class="cls-1" d="M470.47,275.37,336.11,352.94a10,10,0,0,0-5,8.65V516.73a10,10,0,0,0,5,8.66L470.47,603a10,10,0,0,0,10,0l134.35-77.57a10,10,0,0,0,5-8.66V361.59a10,10,0,0,0-5-8.65L480.46,275.37A10,10,0,0,0,470.47,275.37Z"/></clipPath><linearGradient id="linear-gradient-10" x1="309.84" y1="271.82" x2="642" y2="603.98" xlink:href="#linear-gradient"/><clipPath id="clip-path-11"><path class="cls-1" d="M616.46,26.65,482.11,104.22a10,10,0,0,0-5,8.65V268a10,10,0,0,0,5,8.65l134.35,77.57a10,10,0,0,0,10,0l134.36-77.57a10,10,0,0,0,5-8.65V112.87a10,10,0,0,0-5-8.65L626.45,26.65A10,10,0,0,0,616.46,26.65Z"/></clipPath><linearGradient id="linear-gradient-11" x1="455.84" y1="23.1" x2="787.99" y2="355.25" xlink:href="#linear-gradient"/></defs><g class="cls-2"><rect class="cls-3" x="468.26" y="684.2" width="309.75" height="354.57"/></g><rect class="cls-4" x="611.64" y="820.55" width="161.96" height="3.63" transform="translate(-318.39 456.49) rotate(-30)"/><rect class="cls-4" x="471.47" y="819.87" width="164.25" height="3.74" transform="translate(622.14 1810.19) rotate(-150)"/><rect class="cls-4" x="620.87" y="862.74" width="4.46" height="161.41"/><g class="cls-5"><rect class="cls-6" x="320.24" y="599.85" width="309.75" height="354.57"/></g><rect class="cls-4" x="463.62" y="736.2" width="161.96" height="3.63" transform="translate(-296.05 371.17) rotate(-30)"/><rect class="cls-4" x="323.44" y="735.52" width="164.25" height="3.74" transform="translate(388.1 1578.78) rotate(-150)"/><rect class="cls-4" x="472.84" y="778.4" width="4.46" height="161.41"/><g class="cls-7"><rect class="cls-8" x="29.72" y="928.52" width="309.75" height="354.57"/></g><rect class="cls-4" x="182.33" y="1107.07" width="4.46" height="161.41"/><g class="cls-9"><rect class="cls-10" x="28.65" y="760.28" width="309.75" height="354.57"/></g><rect class="cls-4" x="181.25" y="938.83" width="4.46" height="161.41"/><rect class="cls-4" x="173.1" y="1064.88" width="161.96" height="3.63" transform="translate(-499.31 269.95) rotate(-30)"/><rect class="cls-4" x="32.93" y="1064.2" width="164.25" height="3.74" transform="translate(-318.35 2046.84) rotate(-150)"/><rect class="cls-4" x="175.93" y="812.77" width="164.25" height="3.74" transform="translate(74.21 1649.17) rotate(-150)"/><g class="cls-11"><rect class="cls-12" x="175.13" y="510.04" width="309.75" height="354.57"/></g><g class="cls-13"><rect class="cls-14" x="28.23" y="591.94" width="309.75" height="354.57"/></g><rect class="cls-4" x="180.83" y="770.48" width="4.46" height="161.41"/><rect class="cls-4" x="172.02" y="896.63" width="161.96" height="3.63" transform="translate(-415.33 246.87) rotate(-30)"/><rect class="cls-4" x="31.85" y="895.95" width="164.25" height="3.74" transform="translate(-236.23 1732.35) rotate(-150)"/><rect class="cls-4" x="178.34" y="645.72" width="164.25" height="3.74" transform="translate(162.23 1338.65) rotate(-150)"/><g class="cls-15"><rect class="cls-16" x="27.81" y="426.1" width="309.75" height="354.57"/></g><rect class="cls-4" x="171.19" y="562.46" width="161.96" height="3.63" transform="translate(-248.35 201.68) rotate(-30)"/><rect class="cls-4" x="31.01" y="561.78" width="164.25" height="3.74" transform="translate(-70.71 1108.35) rotate(-150)"/><rect class="cls-4" x="180.41" y="604.65" width="4.46" height="161.41"/><rect class="cls-4" x="171.6" y="728.29" width="161.96" height="3.63" transform="translate(-331.21 224.11) rotate(-30)"/><rect class="cls-4" x="31.43" y="727.61" width="164.25" height="3.74" transform="translate(-152.84 1418.01) rotate(-150)"/><g class="cls-17"><rect class="cls-18" x="27.81" y="257.06" width="309.75" height="354.57"/></g><rect class="cls-4" x="171.19" y="393.41" width="161.96" height="3.63" transform="translate(-163.83 179.03) rotate(-30)"/><rect class="cls-4" x="31.01" y="392.73" width="164.25" height="3.74" transform="translate(13.82 792.91) rotate(-150)"/><rect class="cls-4" x="180.41" y="435.61" width="4.46" height="161.41"/><rect class="cls-4" x="318.51" y="646.4" width="161.96" height="3.63" transform="translate(-270.58 286.59) rotate(-30)"/><rect class="cls-4" x="327.74" y="688.59" width="4.46" height="161.41"/><g class="cls-19"><rect class="cls-20" x="27.81" y="91.31" width="309.75" height="354.57"/></g><rect class="cls-4" x="171.19" y="227.66" width="161.96" height="3.63" transform="translate(-80.95 156.83) rotate(-30)"/><rect class="cls-4" x="31.01" y="226.98" width="164.25" height="3.74" transform="translate(96.69 483.62) rotate(-150)"/><rect class="cls-4" x="180.41" y="269.86" width="4.46" height="161.41"/><g class="cls-21"><rect class="cls-22" x="321.05" y="260.61" width="309.75" height="354.57"/></g><rect class="cls-4" x="464.43" y="396.97" width="161.96" height="3.63" transform="translate(-126.32 326.13) rotate(-30)"/><rect class="cls-4" x="324.25" y="396.29" width="164.25" height="3.74" transform="translate(559.23 946.17) rotate(-150)"/><rect class="cls-4" x="473.65" y="439.16" width="4.46" height="161.41"/><g class="cls-23"><rect class="cls-24" x="467.04" y="11.89" width="309.75" height="354.57"/></g><rect class="cls-4" x="610.42" y="148.25" width="161.96" height="3.63" transform="translate(17.6 365.8) rotate(-30)"/><rect class="cls-4" x="470.25" y="147.57" width="164.25" height="3.74" transform="translate(956.02 555.04) rotate(-150)"/><rect class="cls-4" x="619.65" y="190.44" width="4.46" height="161.41"/></svg>